# xmcd CD database file
#
# Track frame offsets:
#	150
#	20504
#	55106
#	80728
#	115400
#	139695
#	156576
#	179440
#	200300
#	225209
#	244866
#	262044
#	277211
#
# Disc length: 4014 seconds
#
# Revision: 0
# Processed by: cddbd v1.4PL0 Copyright (c) Steve Scherf et al.
# Submitted via: CDex 1.51
#
DISCID=bb0fac0d
DTITLE=Claude Challe - Buddha-bar II
DYEAR=2000
DGENRE=New Age
TTITLE0=Need You (Right Now) [Ambient Mix]
TTITLE1=I Love You
TTITLE2=Los Bilbilicos 9 (the Nightingales)
TTITLE3=Ali Baba
TTITLE4=Desire (The Lover's Passion)/Do You Love Me/Come to Me/Desire 
TTITLE5=In Through Time
TTITLE6=Onòn Mweng
TTITLE7=Spirit
TTITLE8=Funky for You [Space Hopper Original Mix]
TTITLE9=Mambo Craze [Extended Version]
TTITLE10=Amor Amor
TTITLE11=Smell of Paradise
TTITLE12=Farruca
EXTD=YEAR: 2000
EXTT0=
EXTT1=
EXTT2=
EXTT3=
EXTT4=
EXTT5=
EXTT6=
EXTT7=
EXTT8=
EXTT9=
EXTT10=
EXTT11=
EXTT12=
PLAYORDER=
